<svg width="48" height="48" viewBox="0 0 48 48" fill="none" xmlns="http://www.w3.org/2000/svg">
<path d="M30.7918 27.2611C31.9923 25.7261 33.4864 23.8155 33.4864 20.7396C33.4864 15.5088 29.2308 11.2532 24.0001 11.2532C18.7694 11.2532 14.5137 15.5088 14.5137 20.7396C14.5137 23.8155 16.0077 25.7261 17.2082 27.2611C17.9597 28.2223 18.5534 28.9814 18.5534 29.7176C18.5534 29.7396 18.5556 29.7611 18.5567 29.7828V35.343C18.5567 36.1196 19.1863 36.7492 19.9629 36.7492H28.0387C28.8153 36.7492 29.4449 36.1196 29.4449 35.343V29.752C29.4452 29.7405 29.4467 29.7292 29.4467 29.7176C29.4466 28.9815 30.0402 28.2223 30.7918 27.2611ZM17.3262 20.7397C17.3262 17.0597 20.3201 14.0658 24.0001 14.0658C27.6801 14.0658 30.6739 17.0597 30.6739 20.7397C30.6739 22.8465 29.655 24.1493 28.5764 25.5286C27.9038 26.3889 27.2149 27.2697 26.8665 28.3114H25.4063V23.2112L27.123 21.8379C27.7295 21.3526 27.8278 20.4677 27.3426 19.8612C26.8573 19.2548 25.9724 19.1564 25.3659 19.6417L24 20.7344L22.6341 19.6417C22.0276 19.1565 21.1427 19.2549 20.6575 19.8612C20.1724 20.4677 20.2707 21.3526 20.8771 21.8379L22.5937 23.2112V28.3114H21.1335C20.7851 27.2698 20.0963 26.3889 19.4237 25.5286C18.345 24.1493 17.3262 22.8464 17.3262 20.7397ZM21.3691 33.9367V31.1238H26.6323V33.9367H21.3691Z" fill="#4C9DF7"/>
<path d="M24 8.4375C25.5067 8.4375 26.8306 7.64306 27.577 6.45159C29.983 6.94181 32.2892 7.93453 34.3015 9.35269C34.5477 9.52622 34.8305 9.60956 35.1104 9.60956C35.5523 9.60956 35.9873 9.40191 36.2612 9.01331C36.7086 8.37853 36.5566 7.50122 35.9218 7.05384C33.6065 5.42203 30.9544 4.27753 28.1866 3.70631C27.9327 1.62103 26.1527 0 24 0C21.6738 0 19.7812 1.89253 19.7812 4.21875C19.7812 6.54497 21.6738 8.4375 24 8.4375ZM24 2.8125C24.7754 2.8125 25.4063 3.44334 25.4063 4.21875C25.4063 4.99416 24.7754 5.625 24 5.625C23.2246 5.625 22.5938 4.99416 22.5938 4.21875C22.5938 3.44334 23.2246 2.8125 24 2.8125Z" fill="#4C9DF7"/>
<path d="M23.9995 39.5626C22.4928 39.5626 21.1689 40.3571 20.4225 41.5485C18.0166 41.0583 15.7103 40.0656 13.6979 38.6475C13.0631 38.2001 12.1858 38.3522 11.7383 38.9868C11.2909 39.6216 11.4429 40.499 12.0778 40.9463C14.3931 42.578 17.0452 43.7225 19.8129 44.2938C20.0667 46.379 21.8467 48.0001 23.9994 48.0001C26.3256 48.0001 28.2182 46.1076 28.2182 43.7813C28.2183 41.4551 26.3257 39.5626 23.9995 39.5626ZM23.9995 45.1876C23.2241 45.1876 22.5933 44.5568 22.5933 43.7813C22.5933 43.0059 23.2241 42.3751 23.9995 42.3751C24.7749 42.3751 25.4058 43.0059 25.4058 43.7813C25.4058 44.5568 24.7749 45.1876 23.9995 45.1876Z" fill="#4C9DF7"/>
<path d="M41.1304 29.6719C38.8042 29.6719 36.9117 31.5644 36.9117 33.8906C36.9117 34.6051 37.0908 35.2783 37.4057 35.8687C35.7721 37.7099 33.7611 39.2124 31.5365 40.2464C30.8322 40.5738 30.5267 41.41 30.854 42.1144C31.0922 42.6269 31.5999 42.9283 32.1302 42.9283C32.3285 42.9283 32.5302 42.886 32.722 42.797C35.2803 41.6078 37.5935 39.8832 39.4764 37.7713C39.9846 37.9887 40.5437 38.1095 41.1304 38.1095C43.4567 38.1095 45.3492 36.217 45.3492 33.8907C45.3492 31.5644 43.4567 29.6719 41.1304 29.6719ZM41.1304 35.2969C40.355 35.2969 39.7242 34.6661 39.7242 33.8906C39.7242 33.1152 40.355 32.4844 41.1304 32.4844C41.9059 32.4844 42.5367 33.1152 42.5367 33.8906C42.5367 34.6661 41.9059 35.2969 41.1304 35.2969Z" fill="#4C9DF7"/>
<path d="M7.01173 29.6752C6.40236 27.8522 6.09383 25.9468 6.09383 23.9999C6.09383 23.4726 6.11755 22.9357 6.16442 22.4044C6.23267 21.6307 5.6608 20.9482 4.88708 20.88C4.11345 20.812 3.43095 21.3837 3.3628 22.1573C3.3087 22.7705 3.28133 23.3903 3.28133 23.9998C3.28133 26.2361 3.63402 28.426 4.3302 30.5237C3.31067 31.2945 2.65039 32.5166 2.65039 33.8903C2.65039 36.2167 4.54292 38.1091 6.86914 38.1091C9.19536 38.1091 11.0879 36.2167 11.0879 33.8903C11.0879 31.6119 9.27205 29.751 7.01173 29.6752ZM6.86914 35.2967C6.09373 35.2967 5.46289 34.6659 5.46289 33.8904C5.46289 33.115 6.09373 32.4842 6.86914 32.4842C7.64455 32.4842 8.27539 33.115 8.27539 33.8904C8.27539 34.6659 7.64455 35.2967 6.86914 35.2967Z" fill="#4C9DF7"/>
<path d="M40.9872 18.3245C41.5966 20.147 41.9062 22.0511 41.9062 23.9999C41.9062 24.7765 42.5358 25.4062 43.3124 25.4062C44.089 25.4062 44.7187 24.7765 44.7187 23.9999C44.7187 21.7619 44.3651 19.5734 43.669 17.4767C44.689 16.7059 45.3496 15.4835 45.3496 14.1094C45.3496 11.7832 43.4571 9.89062 41.1309 9.89062C38.8046 9.89062 36.9121 11.7832 36.9121 14.1094C36.9121 16.3875 38.7274 18.2482 40.9872 18.3245ZM41.1309 12.7031C41.9063 12.7031 42.5371 13.334 42.5371 14.1094C42.5371 14.8848 41.9063 15.5156 41.1309 15.5156C40.3555 15.5156 39.7246 14.8848 39.7246 14.1094C39.7246 13.334 40.3555 12.7031 41.1309 12.7031Z" fill="#4C9DF7"/>
<path d="M16.463 7.75356C17.1674 7.42619 17.4729 6.58994 17.1455 5.8856C16.8182 5.18135 15.9819 4.87581 15.2776 5.2031C12.7191 6.39231 10.406 8.11694 8.52317 10.2288C8.01495 10.0113 7.45592 9.8906 6.86914 9.8906C4.54292 9.8906 2.65039 11.7831 2.65039 14.1093C2.65039 16.4356 4.54292 18.3281 6.86914 18.3281C9.19536 18.3281 11.0879 16.4357 11.0879 14.1093C11.0879 13.3949 10.9087 12.7217 10.594 12.1313C12.2274 10.2901 14.2384 8.78753 16.463 7.75356ZM6.86914 15.5156C6.09373 15.5156 5.46289 14.8848 5.46289 14.1093C5.46289 13.3339 6.09373 12.7031 6.86914 12.7031C7.64455 12.7031 8.27539 13.3339 8.27539 14.1093C8.27539 14.8848 7.64455 15.5156 6.86914 15.5156Z" fill="#4C9DF7"/>
</svg>
