<svg width="48" height="48" viewBox="0 0 48 48" fill="none" xmlns="http://www.w3.org/2000/svg">
<g clip-path="url(#clip0)">
<path d="M47.8956 25.3425C47.6466 24.7327 47.0073 24.3774 46.3582 24.4877L30.7274 27.1433L35.0396 8.37722C35.1642 7.83488 34.9572 7.27004 34.5117 6.93647C34.0661 6.60291 33.4658 6.56363 32.9806 6.83607L16.2806 16.2119C15.8373 16.4608 15.5628 16.9297 15.5628 17.4382V24.4363L7.83103 19.092C7.51134 18.8709 7.11422 18.7922 6.73453 18.8742C6.35465 18.9564 6.02559 19.1919 5.82562 19.5252L0.200436 28.9003C-0.107627 29.4137 -0.056814 30.0657 0.326905 30.5253C0.599623 30.8518 0.997873 31.0302 1.40662 31.0302C1.57303 31.0302 1.74122 31.0006 1.90331 30.9394L8.23744 28.5462L15.7746 40.6798L15.7757 40.6791C16.0239 41.0778 16.4649 41.344 16.9691 41.344H26.3446C26.6398 41.344 26.9169 41.2515 27.1463 41.0921L27.1468 41.0928L47.396 27.0293C47.9369 26.6534 48.1446 25.9524 47.8956 25.3425ZM25.956 35.3492L18.7483 18.0519L31.5869 10.8441L25.956 35.3492ZM7.46569 22.2583L10.8078 24.5684L4.6934 26.8785L7.46569 22.2583ZM13.6202 26.5124L15.5628 27.8552V35.0088L10.919 27.533L13.6202 26.5124ZM18.3754 24.4689L24.2351 38.5314H18.3754V24.4689ZM28.5296 36.7079L30.0453 30.112L40.6113 28.3169L28.5296 36.7079Z" fill="#F0AC50"/>
</g>
<defs>
<clipPath id="clip0">
<rect width="48" height="48" fill="white"/>
</clipPath>
</defs>
</svg>
