<svg width="48" height="48" viewBox="0 0 48 48" fill="none" xmlns="http://www.w3.org/2000/svg">
<g clip-path="url(#clip0)">
<path d="M43.6884 2.34394H33.8443V1.40625C33.8443 0.629625 33.2147 0 32.438 0C31.6614 0 31.0318 0.629625 31.0318 1.40625V2.34394H25.4062V1.40625C25.4062 0.629625 24.7766 0 24 0C23.2233 0 22.5937 0.629625 22.5937 1.40625V2.34394H16.9681V1.40625C16.9681 0.629625 16.3385 0 15.5619 0C14.7853 0 14.1557 0.629625 14.1557 1.40625V2.34394H4.31152C3.5349 2.34394 2.90527 2.97356 2.90527 3.75019V40.9684C2.90527 41.745 3.5349 42.3746 4.31152 42.3746H17.0331C16.992 42.6818 16.9687 42.9943 16.9687 43.3125V45.1875H16.4998C15.7231 45.1875 15.0935 45.8171 15.0935 46.5938C15.0935 47.3704 15.7231 48 16.4998 48H31.5002C32.2768 48 32.9064 47.3704 32.9064 46.5938C32.9064 45.8171 32.2768 45.1875 31.5002 45.1875H31.0312V43.3125C31.0312 42.9943 31.008 42.6818 30.9668 42.3746H43.6884C44.465 42.3746 45.0947 41.745 45.0947 40.9684V3.75019C45.0947 2.97356 44.465 2.34394 43.6884 2.34394ZM14.1557 5.15644V6.09394C14.1557 6.87056 14.7853 7.50019 15.5619 7.50019C16.3385 7.50019 16.9681 6.87056 16.9681 6.09394V5.15644H22.5937V6.09394C22.5937 6.87056 23.2233 7.50019 24 7.50019C24.7766 7.50019 25.4062 6.87056 25.4062 6.09394V5.15644H31.0318V6.09394C31.0318 6.87056 31.6614 7.50019 32.438 7.50019C33.2147 7.50019 33.8443 6.87056 33.8443 6.09394V5.15644H42.2822V10.4998H5.71777V5.15644H14.1557ZM19.7812 45.1875V43.3125C19.7812 40.9862 21.6737 39.0938 24 39.0938C26.3262 39.0938 28.2187 40.9862 28.2187 43.3125V45.1875H19.7812ZM19.7812 32.0625V30.1877H28.2187V32.0625C28.2187 34.3888 26.3262 36.2812 24 36.2812C21.6737 36.2812 19.7812 34.3888 19.7812 32.0625ZM29.9431 39.5621C29.4842 38.8375 28.8978 38.2012 28.2138 37.6875C29.9233 36.4037 31.0312 34.3601 31.0312 32.0625V30.1877H31.5002C32.2768 30.1877 32.9064 29.5581 32.9064 28.7814C32.9064 28.0048 32.2768 27.3752 31.5002 27.3752H16.4998C15.7231 27.3752 15.0935 28.0048 15.0935 28.7814C15.0935 29.5581 15.7231 30.1877 16.4998 30.1877H16.9687V32.0625C16.9687 34.3601 18.0766 36.4037 19.7861 37.6875C19.1021 38.2012 18.5158 38.8375 18.0569 39.5621H5.71777V13.3123H42.2822V39.5621H29.9431Z" fill="#F45A8A"/>
<path d="M15.5615 16.1252H9.93652C9.1599 16.1252 8.53027 16.7549 8.53027 17.5315V23.1563C8.53027 23.9329 9.1599 24.5626 9.93652 24.5626H15.5615C16.3381 24.5626 16.9678 23.9329 16.9678 23.1563V17.5315C16.9678 16.7549 16.3381 16.1252 15.5615 16.1252ZM14.1553 21.7501H11.3428V18.9377H14.1553V21.7501Z" fill="#F45A8A"/>
<path d="M26.8125 16.1252H21.1875C20.4109 16.1252 19.7812 16.7549 19.7812 17.5315V23.1563C19.7812 23.9329 20.4109 24.5626 21.1875 24.5626H26.8125C27.5891 24.5626 28.2188 23.9329 28.2188 23.1563V17.5315C28.2188 16.7549 27.5891 16.1252 26.8125 16.1252ZM25.4062 21.7501H22.5938V18.9377H25.4062V21.7501Z" fill="#F45A8A"/>
<path d="M38.0635 16.1252H32.4385C31.6619 16.1252 31.0322 16.7549 31.0322 17.5315V23.1563C31.0322 23.9329 31.6619 24.5626 32.4385 24.5626H38.0635C38.8401 24.5626 39.4697 23.9329 39.4697 23.1563V17.5315C39.4697 16.7549 38.8401 16.1252 38.0635 16.1252ZM36.6572 21.7501H33.8447V18.9377H36.6572V21.7501Z" fill="#F45A8A"/>
</g>
<defs>
<clipPath id="clip0">
<rect width="48" height="48" fill="white"/>
</clipPath>
</defs>
</svg>
