<svg width="48" height="48" viewBox="0 0 48 48" fill="none" xmlns="http://www.w3.org/2000/svg">
<g clip-path="url(#clip0)">
<path d="M24.001 19.0327C23.2243 19.0327 22.5947 19.6623 22.5947 20.439V23.2511C22.5947 24.0277 23.2243 24.6574 24.001 24.6574C24.7776 24.6574 25.4072 24.0277 25.4072 23.2511V20.439C25.4072 19.6623 24.7776 19.0327 24.001 19.0327Z" fill="#7DD65E"/>
<path d="M37.1256 45.1874H35.0713C35.1889 44.7317 35.251 44.2599 35.251 43.7813C35.251 40.8849 33.0509 38.493 30.234 38.1889C29.7485 37.2601 29.0598 36.4488 28.219 35.817V32.6268H37.1256C37.9023 32.6268 38.5319 31.9972 38.5319 31.2205C38.5319 26.297 36.4553 23.632 34.7132 22.2631C33.7104 21.4752 32.7135 21.0217 31.9694 20.7652V11.5316C31.9694 6.96248 29.9449 4.09436 28.2464 2.49291C26.4058 0.757296 24.5352 0.103009 24.4565 0.0760086C24.1608 -0.0253362 23.8396 -0.0253362 23.5439 0.0760086C23.4653 0.103009 21.5947 0.75739 19.7541 2.49291C18.0556 4.09436 16.0311 6.96248 16.0311 11.5316V20.7652C15.2871 21.0217 14.2903 21.4752 13.2873 22.2631C11.5452 23.632 9.46875 26.297 9.46875 31.2205C9.46875 31.9972 10.0984 32.6268 10.875 32.6268H19.7814V35.8173C18.9409 36.4491 18.2525 37.2603 17.7669 38.1889C14.9502 38.493 12.7497 40.885 12.7497 43.7813C12.7497 44.2599 12.8118 44.7317 12.9294 45.1874H10.875C10.0984 45.1874 9.46875 45.817 9.46875 46.5936C9.46875 47.3703 10.0984 47.9999 10.875 47.9999H37.1256C37.9023 47.9999 38.5319 47.3703 38.5319 46.5936C38.5319 45.817 37.9023 45.1874 37.1256 45.1874ZM16.0311 29.8143H12.355C12.7469 26.2235 14.6219 24.5669 16.0311 23.82V29.8143ZM31.9695 23.8228C32.2885 23.9909 32.6314 24.2042 32.9757 24.4747C34.5041 25.6756 35.4 27.4681 35.6482 29.8143H31.9696V23.8228H31.9695ZM23.9998 2.93072C25.2339 3.51601 28.5099 5.48937 29.0733 10.1253H18.9273C19.4912 5.48572 22.7714 3.5131 23.9998 2.93072ZM18.8437 29.8143V12.9378H29.157V29.8143H18.8437ZM32.0607 45.1874H15.9399C15.6943 44.7629 15.5622 44.2791 15.5622 43.7813C15.5622 42.2305 16.8239 40.9688 18.3747 40.9688C18.436 40.9688 18.5041 40.9717 18.5887 40.978C19.2227 41.0252 19.8091 40.6419 20.02 40.0427C20.3537 39.0947 21.019 38.2932 21.8933 37.7862C22.3271 37.5346 22.5941 37.0712 22.5941 36.5697V32.6268H25.4066V36.5693C25.4066 37.0708 25.6737 37.5343 26.1075 37.7858C26.982 38.2931 27.6474 39.0945 27.9811 40.0427C28.1921 40.642 28.7799 41.0249 29.4127 40.978C29.4958 40.9719 29.5657 40.9688 29.626 40.9688C31.1769 40.9688 32.4386 42.2305 32.4386 43.7813C32.4385 44.2792 32.3063 44.7629 32.0607 45.1874Z" fill="#7DD65E"/>
</g>
<defs>
<clipPath id="clip0">
<rect width="48" height="48" fill="white"/>
</clipPath>
</defs>
</svg>
