<svg width="148" height="33" viewBox="0 0 148 33" fill="none" xmlns="http://www.w3.org/2000/svg">
<path d="M32.52 24.28C30.96 24.28 29.68 23.84 28.68 22.96C27.68 22.08 27.18 20.9 27.18 19.42V10H29.92V19.2C29.92 19.9333 30.1267 20.5133 30.54 20.94C30.9667 21.3667 31.6267 21.58 32.52 21.58C33.4133 21.58 34.0667 21.3667 34.48 20.94C34.9067 20.5133 35.12 19.9333 35.12 19.2V10H37.88V19.42C37.88 20.9 37.38 22.08 36.38 22.96C35.38 23.84 34.0933 24.28 32.52 24.28ZM42.5288 16.84C42.5288 17.1067 42.7021 17.3267 43.0488 17.5C43.4088 17.66 43.8421 17.8067 44.3488 17.94C44.8554 18.06 45.3621 18.22 45.8688 18.42C46.3754 18.6067 46.8021 18.9267 47.1488 19.38C47.5088 19.8333 47.6888 20.4 47.6888 21.08C47.6888 22.1067 47.3021 22.9 46.5288 23.46C45.7688 24.0067 44.8154 24.28 43.6688 24.28C41.6154 24.28 40.2154 23.4867 39.4688 21.9L41.7088 20.64C42.0021 21.5067 42.6554 21.94 43.6688 21.94C44.5888 21.94 45.0488 21.6533 45.0488 21.08C45.0488 20.8133 44.8688 20.6 44.5088 20.44C44.1621 20.2667 43.7354 20.1133 43.2288 19.98C42.7221 19.8467 42.2154 19.68 41.7088 19.48C41.2021 19.28 40.7688 18.9667 40.4088 18.54C40.0621 18.1 39.8888 17.5533 39.8888 16.9C39.8888 15.9133 40.2488 15.14 40.9688 14.58C41.7021 14.0067 42.6088 13.72 43.6888 13.72C44.5021 13.72 45.2421 13.9067 45.9088 14.28C46.5754 14.64 47.1021 15.16 47.4888 15.84L45.2888 17.04C44.9688 16.36 44.4354 16.02 43.6888 16.02C43.3554 16.02 43.0754 16.0933 42.8488 16.24C42.6354 16.3867 42.5288 16.5867 42.5288 16.84ZM51.3913 20.06C51.7379 21.3133 52.6779 21.94 54.2113 21.94C55.1979 21.94 55.9446 21.6067 56.4513 20.94L58.5313 22.14C57.5446 23.5667 56.0913 24.28 54.1713 24.28C52.5179 24.28 51.1913 23.78 50.1913 22.78C49.1913 21.78 48.6912 20.52 48.6912 19C48.6912 17.4933 49.1846 16.24 50.1713 15.24C51.1579 14.2267 52.4246 13.72 53.9713 13.72C55.4379 13.72 56.6446 14.2267 57.5913 15.24C58.5513 16.2533 59.0313 17.5067 59.0313 19C59.0313 19.3333 58.9979 19.6867 58.9313 20.06H51.3913ZM51.3513 18.06H56.4513C56.3046 17.38 55.9979 16.8733 55.5313 16.54C55.0779 16.2067 54.5579 16.04 53.9713 16.04C53.2779 16.04 52.7046 16.22 52.2513 16.58C51.7979 16.9267 51.4979 17.42 51.3513 18.06ZM65.9194 12.2C64.506 12.0933 63.7994 12.66 63.7994 13.9V14H65.9194V16.48H63.7994V24H61.2194V16.48H59.7794V14H61.2194V13.9C61.2194 12.4867 61.6127 11.4133 62.3994 10.68C63.186 9.94667 64.3594 9.62667 65.9194 9.72V12.2ZM73.7019 14H76.2819V24H73.7019V22.88C73.0752 23.8133 72.0819 24.28 70.7219 24.28C69.6285 24.28 68.7219 23.9133 68.0019 23.18C67.2952 22.4467 66.9419 21.4333 66.9419 20.14V14H69.5219V19.82C69.5219 20.4867 69.7019 21 70.0619 21.36C70.4219 21.7067 70.9019 21.88 71.5019 21.88C72.1685 21.88 72.7019 21.6733 73.1019 21.26C73.5019 20.8467 73.7019 20.2267 73.7019 19.4V14ZM78.6448 24V9.4H81.2248V24H78.6448ZM97.9662 10V12.64H94.1863V24H91.4263V12.64H87.6663V10H97.9662ZM105.171 14H107.751V24H105.171V22.82C104.397 23.7933 103.311 24.28 101.911 24.28C100.577 24.28 99.4306 23.7733 98.4706 22.76C97.524 21.7333 97.0506 20.48 97.0506 19C97.0506 17.52 97.524 16.2733 98.4706 15.26C99.4306 14.2333 100.577 13.72 101.911 13.72C103.311 13.72 104.397 14.2067 105.171 15.18V14ZM100.411 21.04C100.931 21.56 101.591 21.82 102.391 21.82C103.191 21.82 103.851 21.56 104.371 21.04C104.904 20.5067 105.171 19.8267 105.171 19C105.171 18.1733 104.904 17.5 104.371 16.98C103.851 16.4467 103.191 16.18 102.391 16.18C101.591 16.18 100.931 16.4467 100.411 16.98C99.8906 17.5 99.6306 18.1733 99.6306 19C99.6306 19.8267 99.8906 20.5067 100.411 21.04ZM112.67 15.72C112.91 15.08 113.303 14.6 113.85 14.28C114.41 13.96 115.03 13.8 115.71 13.8V16.68C114.923 16.5867 114.217 16.7467 113.59 17.16C112.977 17.5733 112.67 18.26 112.67 19.22V24H110.09V14H112.67V15.72ZM124.508 14H127.028V23.52C127.028 25.0667 126.515 26.2467 125.488 27.06C124.475 27.8733 123.248 28.28 121.808 28.28C120.728 28.28 119.775 28.0733 118.948 27.66C118.135 27.2467 117.508 26.64 117.068 25.84L119.268 24.58C119.775 25.5133 120.648 25.98 121.888 25.98C122.701 25.98 123.341 25.7667 123.808 25.34C124.275 24.9133 124.508 24.3067 124.508 23.52V22.44C123.748 23.4533 122.681 23.96 121.308 23.96C119.895 23.96 118.708 23.4667 117.748 22.48C116.801 21.48 116.328 20.2667 116.328 18.84C116.328 17.4267 116.808 16.22 117.768 15.22C118.728 14.22 119.908 13.72 121.308 13.72C122.681 13.72 123.748 14.2267 124.508 15.24V14ZM119.688 20.82C120.221 21.3267 120.895 21.58 121.708 21.58C122.521 21.58 123.188 21.3267 123.708 20.82C124.241 20.3 124.508 19.64 124.508 18.84C124.508 18.0533 124.241 17.4067 123.708 16.9C123.188 16.38 122.521 16.12 121.708 16.12C120.895 16.12 120.221 16.38 119.688 16.9C119.168 17.4067 118.908 18.0533 118.908 18.84C118.908 19.64 119.168 20.3 119.688 20.82ZM131.548 20.06C131.894 21.3133 132.834 21.94 134.368 21.94C135.354 21.94 136.101 21.6067 136.608 20.94L138.688 22.14C137.701 23.5667 136.248 24.28 134.328 24.28C132.674 24.28 131.348 23.78 130.348 22.78C129.348 21.78 128.847 20.52 128.847 19C128.847 17.4933 129.341 16.24 130.328 15.24C131.314 14.2267 132.581 13.72 134.128 13.72C135.594 13.72 136.801 14.2267 137.748 15.24C138.708 16.2533 139.188 17.5067 139.188 19C139.188 19.3333 139.154 19.6867 139.088 20.06H131.548ZM131.508 18.06H136.608C136.461 17.38 136.154 16.8733 135.688 16.54C135.234 16.2067 134.714 16.04 134.128 16.04C133.434 16.04 132.861 16.22 132.408 16.58C131.954 16.9267 131.654 17.42 131.508 18.06ZM146.416 16.48H144.156V20.64C144.156 20.9867 144.242 21.24 144.416 21.4C144.589 21.56 144.842 21.6533 145.176 21.68C145.509 21.6933 145.922 21.6867 146.416 21.66V24C144.642 24.2 143.389 24.0333 142.656 23.5C141.936 22.9667 141.576 22.0133 141.576 20.64V16.48H139.836V14H141.576V11.98L144.156 11.2V14H146.416V16.48Z" fill="#252525"/>
<rect x="8" y="6" width="27" height="8" transform="rotate(90 8 6)" fill="#252525"/>
<rect x="19" width="27" height="8" transform="rotate(90 19 0)" fill="#252525"/>
</svg>
